<svg width="0" height="0"><symbol xmlns="http://www.w3.org/2000/svg" id="marker" fill="none" viewBox="0 0 98 112"><circle cx="49" cy="49" r="49" fill="currentColor"/><path fill="currentColor" d="m51 29.848-3.697 11.176h-.256l-2.616-6.4-2.568 6.384h-.272l-3.728-11.16h2.208l1.944 6.472 2.328-6.472h.272l2.36 6.448 1.832-6.448H51Zm7.276 9.344V41h-6.144V29.848h5.824v1.744h-3.824V34.2h3.04v1.696h-3.04v3.296h4.144ZM21.31 59.384h-3.984L16.734 61h-2.24l4.72-11.344h.16L24.11 61h-2.176l-.624-1.616Zm-.592-1.552-1.168-3.04-.272-.896-.256.896-1.12 3.04h2.816ZM30.084 61l-2.864-4.032V61h-2.032V49.848h3.104c2.645 0 3.968 1.184 3.968 3.552 0 .528-.086 1.048-.256 1.56a3.48 3.48 0 0 1-.84 1.352c-.384.395-.878.667-1.48.816L32.564 61h-2.48Zm-2.016-5.04c.453 0 .84-.107 1.16-.32a2.08 2.08 0 0 0 .736-.864 2.82 2.82 0 0 0 .248-1.184c0-.736-.17-1.277-.512-1.624-.336-.347-.896-.52-1.68-.52h-.8v4.512h.848Zm12.45 3.232V61h-6.144V49.848h5.824v1.744h-3.824V54.2h3.04v1.696h-3.04v3.296h4.144Zm12.869-9.344V61h-2.08v-4.736h-3.68V61h-2.064V49.848h2.064v4.656h3.68v-4.656h2.08Zm8.787 9.344V61H56.03V49.848h5.824v1.744H58.03V54.2h3.04v1.696h-3.04v3.296h4.144ZM69.068 61l-2.864-4.032V61h-2.032V49.848h3.104c2.645 0 3.968 1.184 3.968 3.552 0 .528-.085 1.048-.256 1.56a3.48 3.48 0 0 1-.84 1.352c-.384.395-.877.667-1.48.816L71.548 61h-2.48Zm-2.016-5.04c.453 0 .84-.107 1.16-.32a2.08 2.08 0 0 0 .736-.864 2.82 2.82 0 0 0 .248-1.184c0-.736-.17-1.277-.512-1.624-.336-.347-.896-.52-1.68-.52h-.8v4.512h.848Zm12.45 3.232V61H73.36V49.848h5.824v1.744h-3.825V54.2h3.04v1.696h-3.04v3.296h4.144Zm2.094-10.496h2.192l-.224 8.256h-1.76l-.208-8.256Zm.176 9.92h1.824V61h-1.824v-2.384ZM48.5 112 36.809 96.25H60.19L48.5 112Z"/><defs><linearGradient id="a" x1="4.742" x2="109.682" y1="5.568" y2="54.338" gradientUnits="userSpaceOnUse"><stop stop-color="#618967"/><stop offset="1" stop-color="#72A479"/></linearGradient></defs></symbol><symbol id="svgSprite"><symbol xmlns="http://www.w3.org/2000/svg" id="logo" fill="currentColor" viewBox="0 0 98 19"><path d="M4.075 14.7h6.675V18H.625V.5h3.45v14.2Zm26.036 1.025c-1.767 1.75-3.917 2.625-6.45 2.625-2.534 0-4.684-.875-6.45-2.625-1.75-1.767-2.625-3.925-2.625-6.475s.875-4.7 2.625-6.45C18.977 1.033 21.127.15 23.66.15s4.683.883 6.45 2.65c1.766 1.75 2.65 3.9 2.65 6.45 0 2.55-.884 4.708-2.65 6.475Zm-10.475-2.35c1.083 1.067 2.425 1.6 4.025 1.6 1.6 0 2.941-.533 4.025-1.6 1.083-1.083 1.625-2.458 1.625-4.125 0-1.667-.542-3.042-1.625-4.125C26.602 4.042 25.26 3.5 23.66 3.5c-1.6 0-2.942.542-4.025 1.625-1.084 1.083-1.625 2.458-1.625 4.125 0 1.667.541 3.042 1.625 4.125ZM56.11 8.6v1.35c0 2.5-.8 4.525-2.4 6.075-1.6 1.55-3.667 2.325-6.2 2.325-2.7 0-4.942-.875-6.726-2.625-1.766-1.767-2.65-3.917-2.65-6.45 0-2.55.876-4.708 2.626-6.475C42.526 1.033 44.71.15 47.31.15c1.633 0 3.124.375 4.474 1.125 1.35.733 2.4 1.717 3.15 2.95l-2.95 1.7c-.416-.717-1.05-1.3-1.9-1.75-.833-.45-1.766-.675-2.8-.675-1.666 0-3.041.55-4.124 1.65-1.067 1.083-1.6 2.458-1.6 4.125 0 1.65.541 3.017 1.624 4.1 1.1 1.067 2.55 1.6 4.35 1.6 1.334 0 2.434-.292 3.3-.875a4.453 4.453 0 0 0 1.8-2.45h-5.3V8.6h8.776Zm20.929 7.125c-1.767 1.75-3.917 2.625-6.45 2.625-2.534 0-4.684-.875-6.45-2.625-1.75-1.767-2.626-3.925-2.626-6.475s.875-4.7 2.625-6.45C65.906 1.033 68.056.15 70.59.15s4.684.883 6.45 2.65c1.767 1.75 2.65 3.9 2.65 6.45 0 2.55-.883 4.708-2.65 6.475Zm-10.476-2.35c1.084 1.067 2.426 1.6 4.026 1.6 1.6 0 2.941-.533 4.025-1.6 1.083-1.083 1.625-2.458 1.625-4.125 0-1.667-.542-3.042-1.625-4.125C73.53 4.042 72.19 3.5 70.59 3.5s-2.942.542-4.026 1.625C65.481 6.208 64.94 7.583 64.94 9.25c0 1.667.541 3.042 1.624 4.125Zm24.64 4.975c-1.733 0-3.191-.383-4.374-1.15a6.282 6.282 0 0 1-2.5-3.175l2.95-1.725c.683 1.783 2.025 2.675 4.025 2.675.966 0 1.674-.175 2.124-.525.45-.35.675-.792.675-1.325 0-.617-.275-1.092-.825-1.425-.55-.35-1.533-.725-2.95-1.125a19.316 19.316 0 0 1-2-.7 9.556 9.556 0 0 1-1.624-.925c-.534-.4-.942-.9-1.225-1.5-.284-.6-.425-1.3-.425-2.1 0-1.583.558-2.842 1.674-3.775C87.864.625 89.222.15 90.805.15c1.416 0 2.658.35 3.724 1.05 1.084.683 1.925 1.642 2.526 2.875l-2.9 1.675c-.7-1.5-1.817-2.25-3.35-2.25-.717 0-1.284.167-1.7.5-.4.317-.6.733-.6 1.25 0 .55.225 1 .675 1.35.466.333 1.35.7 2.65 1.1.533.167.933.3 1.2.4.283.083.658.225 1.124.425.484.183.85.358 1.1.525.267.167.567.392.9.675.334.283.584.575.75.875.184.3.334.667.45 1.1.134.417.2.875.2 1.375 0 1.617-.591 2.9-1.775 3.85-1.166.95-2.691 1.425-4.575 1.425Z"/></symbol><symbol xmlns="http://www.w3.org/2000/svg" id="location" fill="currentColor" viewBox="0 0 18 21"><path fill-rule="evenodd" stroke="currentColor" stroke-linecap="round" stroke-linejoin="round" stroke-width="1.5" d="M1.24 9.391a7.678 7.678 0 1 1 15.356.052v.087c-.052 2.757-1.592 5.305-3.479 7.296a20.187 20.187 0 0 1-3.59 2.957.93.93 0 0 1-1.218 0 19.819 19.819 0 0 1-5.052-4.73 9.826 9.826 0 0 1-2.018-5.636v-.026Z" clip-rule="evenodd"/><circle cx="8.917" cy="9.539" r="2.461" stroke="currentColor" stroke-linecap="round" stroke-linejoin="round" stroke-width="1.5"/></symbol><symbol xmlns="http://www.w3.org/2000/svg" id="menu" fill="currentColor" stroke="currentColor" viewBox="0 0 24 24"><path id="SVGRepo_iconCarrier" stroke-linecap="round" stroke-width="2" d="M4 18h16M4 12h16M4 6h16"/></symbol><symbol xmlns="http://www.w3.org/2000/svg" id="search" fill="currentColor" viewBox="0 0 21 21"><circle cx="9.767" cy="9.767" r="8.989" stroke="currentColor" stroke-linecap="round" stroke-linejoin="round" stroke-width="1.5"/><path stroke="currentColor" stroke-linecap="round" stroke-linejoin="round" stroke-width="1.5" d="M16.018 16.485 19.542 20"/></symbol><symbol xmlns="http://www.w3.org/2000/svg" id="basket" fill="currentColor" viewBox="0 0 20 21"><path fill-rule="evenodd" stroke="currentColor" stroke-linecap="round" stroke-linejoin="round" stroke-width="1.5" d="M5.422 17.82a.766.766 0 0 1 0 1.53.764.764 0 1 1 0-1.53Zm11.253 0a.766.766 0 1 1-.002 1.532.766.766 0 0 1 .002-1.532Z" clip-rule="evenodd"/><path stroke="currentColor" stroke-linecap="round" stroke-linejoin="round" stroke-width="1.5" d="m.75 1.25 2.08.36.963 11.473a1.802 1.802 0 0 0 1.797 1.653h10.912c.896 0 1.656-.658 1.785-1.546l.949-6.558a1.34 1.34 0 0 0-1.327-1.533H3.164m8.961 3.696h2.773"/></symbol><symbol xmlns="http://www.w3.org/2000/svg" id="tel" fill="currentColor" viewBox="0 0 14 14"><path fill-rule="evenodd" stroke="currentColor" stroke-linecap="round" stroke-linejoin="round" d="M.993 2.249c.211-.35 1.374-1.62 2.202-1.581.248.02.467.17.645.344h0c.409.4 1.58 1.909 1.646 2.226.162.78-.767 1.229-.483 2.014.724 1.772 1.972 3.02 3.746 3.744.784.285 1.234-.644 2.013-.482.317.066 1.827 1.236 2.226 1.645v0c.174.177.324.397.345.645.03.873-1.318 2.051-1.581 2.202-.62.444-1.43.436-2.416-.023-2.754-1.145-7.153-5.462-8.32-8.319C.569 3.684.539 2.87.993 2.25Z" clip-rule="evenodd"/><path stroke="currentColor" stroke-linecap="round" stroke-linejoin="round" d="M8.71.833a5.314 5.314 0 0 1 4.694 4.688M8.71 3.195a2.95 2.95 0 0 1 2.332 2.332"/></symbol><symbol xmlns="http://www.w3.org/2000/svg" id="onion" viewBox="0 0 70 62"><path d="M29.508 55.26c-1.537.536-3.12.876-4.726 1.022a18.286 18.286 0 0 0 3.376-2.193 1.026 1.026 0 1 0-1.292-1.593c-2.82 2.286-5.35 3.089-7.44 3.178 1.585-1.482 3.496-4.172 5.753-8.788a1.026 1.026 0 1 0-1.843-.9c-3.368 6.888-5.97 9.238-7.066 9.238a.618.618 0 0 1-.2-.031c-.367-.125-.601-.704-.708-1.038-1.794-5.605 3.403-25.282 10.272-34.865l4.627-6.455c.26-.364.522-.885.735-1.466l.146-.397.067.023-.128.403c-.187.59-.299 1.162-.315 1.61l-.284 7.741a1.026 1.026 0 0 0 2.05.075l.241-6.577 1.43 4.14a1.026 1.026 0 0 0 1.939-.67l-.05-.145.004.008a1.026 1.026 0 1 0 1.757-1.06l-1.475-2.444a2.01 2.01 0 0 1-.227-1.516l2.32-9.26a1.978 1.978 0 0 0-.398-1.755 1.973 1.973 0 0 0-1.648-.72l-5.426.307a1.984 1.984 0 0 0-1.713 1.19l-3.01 6.863a2.01 2.01 0 0 1-1.108 1.06L14.545 14.36c-4.672 1.809-8.494 4.908-11.051 8.96-2.375 3.762-3.581 8.164-3.49 12.728.092 4.565 1.475 8.914 3.998 12.578 2.719 3.946 6.662 6.889 11.404 8.509 2.503.855 5.048 1.283 7.565 1.283 2.453 0 4.88-.407 7.212-1.22a1.026 1.026 0 0 0-.675-1.937Zm1.643-52.08 5.31-.3-1.786 7.132-5.672-1.938 2.148-4.894ZM5.692 47.462C3.397 44.13 2.14 40.168 2.056 36.006c-.084-4.162 1.013-8.17 3.173-11.592 2.32-3.677 5.799-6.493 10.058-8.142l7.97-3.086-4.33 2.834c-3.23 2.115-6.064 5.265-8.197 9.109-1.968 3.546-3.31 7.595-3.879 11.709a1.026 1.026 0 1 0 2.032.28c1.133-8.186 5.413-15.613 11.169-19.382l7.863-5.15-3.948 5.509c-3.251 4.535-6.499 11.844-8.687 19.55-1.905 6.71-2.675 12.473-2.156 15.876-1.023-.868-1.892-1.982-2.595-3.34-1.235-2.382-1.902-5.436-1.928-8.83a1.026 1.026 0 0 0-2.051.016c.028 3.604.716 6.78 1.966 9.354a19.695 19.695 0 0 1-2.824-3.26Z"/><path d="M48.15 17.477c-12.048 0-21.85 9.802-21.85 21.85 0 12.049 9.802 21.85 21.85 21.85 12.048 0 21.85-9.801 21.85-21.85 0-12.048-9.802-21.85-21.85-21.85Zm0 41.65c-10.917 0-19.798-8.882-19.798-19.8 0-10.916 8.881-19.798 19.798-19.798 10.917 0 19.799 8.881 19.799 19.799 0 10.917-8.882 19.798-19.799 19.798Z"/><path d="M48.15 21.608c-9.77 0-17.72 7.949-17.72 17.72 0 9.77 7.95 17.719 17.72 17.719s17.72-7.95 17.72-17.72-7.95-17.72-17.72-17.72Zm0 33.388c-8.64 0-15.668-7.03-15.668-15.668 0-8.64 7.029-15.669 15.668-15.669 8.64 0 15.668 7.03 15.668 15.669S56.79 54.996 48.15 54.996Z"/><path d="M48.15 26.635c-6.998 0-12.692 5.694-12.692 12.693 0 6.998 5.694 12.692 12.692 12.692 4.693 0 8.986-2.58 11.203-6.734a1.026 1.026 0 1 0-1.81-.966 10.637 10.637 0 0 1-9.393 5.649c-5.867 0-10.64-4.774-10.64-10.641 0-5.868 4.773-10.641 10.64-10.641 5.868 0 10.641 4.773 10.641 10.64 0 .375-.02.761-.063 1.148a1.026 1.026 0 0 0 2.04.22c.05-.46.075-.92.075-1.367 0-7-5.694-12.693-12.693-12.693Z"/><path d="M40.77 39.328c0 4.069 3.31 7.38 7.38 7.38s7.38-3.311 7.38-7.38c0-4.07-3.31-7.38-7.38-7.38-4.069 0-7.38 3.31-7.38 7.38Zm12.709 0a5.335 5.335 0 0 1-5.329 5.328 5.335 5.335 0 0 1-5.328-5.328 5.334 5.334 0 0 1 5.328-5.329 5.334 5.334 0 0 1 5.329 5.329Z"/></symbol><symbol xmlns="http://www.w3.org/2000/svg" id="delivery" viewBox="0 0 60 60"><path d="M47.695 24.727H33.14l12.569-22.1A1.758 1.758 0 0 0 44.18 0H23.086c-.757 0-1.43.485-1.668 1.204L10.87 32.96a1.758 1.758 0 0 0 1.668 2.313h14.917l-9.503 22.278a1.758 1.758 0 0 0 2.933 1.856L49.011 27.65c1.002-1.132.197-2.923-1.316-2.923ZM25.44 48.965l6.295-14.76a1.759 1.759 0 0 0-1.617-2.447H14.975l9.38-28.242h16.802l-12.568 22.1c-.665 1.168.18 2.626 1.528 2.626h13.674L25.439 48.965Z"/></symbol><symbol xmlns="http://www.w3.org/2000/svg" id="chef" viewBox="0 0 61 61"><path d="M16.636 29.114a1.386 1.386 0 1 0-2.772 0c0 3.64 4.015 8.639 4.473 9.198a1.39 1.39 0 0 0 1.952.192c.592-.486.677-1.36.192-1.952-1.486-1.812-3.845-5.432-3.845-7.438Zm29.114-1.387c-.766 0-1.386.62-1.386 1.387 0 2-2.359 5.624-3.845 7.44a1.387 1.387 0 0 0 2.144 1.758c.458-.56 4.473-5.558 4.473-9.198 0-.767-.62-1.387-1.386-1.387Zm-15.25 0c-.766 0-1.386.62-1.386 1.387v8.318a1.386 1.386 0 1 0 2.773 0v-8.318c0-.767-.62-1.387-1.387-1.387Z"/><path d="M45.75 5.545c-.84 0-1.718.112-2.63.281C40.067 2.266 35.547 0 30.5 0c-5.047 0-9.567 2.267-12.62 5.826-.912-.17-1.79-.28-2.63-.28C6.841 5.545 0 12.385 0 20.795c0 5.762 3.25 11 8.35 13.59l-.026 20.95a5.62 5.62 0 0 0 1.654 4.004A5.616 5.616 0 0 0 13.98 61h33.045a5.662 5.662 0 0 0 5.657-5.657V34.365A15.248 15.248 0 0 0 61 20.795c0-8.408-6.841-15.25-15.25-15.25Zm4.16 49.799a2.888 2.888 0 0 1-2.885 2.883H13.98c-.77 0-1.495-.3-2.04-.846a2.865 2.865 0 0 1-.844-2.041l.008-5.43h38.805v5.434Zm.858-23.137a1.36 1.36 0 0 0-.632.524 1.37 1.37 0 0 0-.227.79v13.615H11.107l.018-13.597a1.39 1.39 0 0 0-.863-1.316 12.475 12.475 0 0 1-7.49-11.427c0-6.881 5.598-12.478 12.478-12.478.269 0 .553.033.831.055a16.515 16.515 0 0 0-2.217 8.263 1.386 1.386 0 1 0 2.772 0c0-7.644 6.22-13.863 13.864-13.863 7.644 0 13.864 6.22 13.864 13.863a1.386 1.386 0 1 0 2.772 0 16.52 16.52 0 0 0-2.217-8.263c.278-.022.562-.055.831-.055 6.88 0 12.477 5.597 12.477 12.478a12.48 12.48 0 0 1-7.46 11.411Z"/></symbol><symbol xmlns="http://www.w3.org/2000/svg" id="empty-basket" fill="currentColor" viewBox="0 0 76 89"><g clip-path="url(#a)"><path d="M52.999 58.108c1.627 6.854-2.986 10.297-6.761 10.63-2.802.25-5.168-.715-6.946-2.911-1.762-2.163-2.097-4.642-1.41-7.403h-8.455c.688 3.077.235 5.856-2.064 8.101-1.576 1.547-3.523 2.313-5.77 2.23-2.635-.084-4.715-1.248-6.259-3.328-1.56-2.096-1.526-4.491-1.157-7.003-.973-.183-1.896-.067-2.802-.1-2.114-.066-3.389-2.163-2.382-3.96.503-.88 1.275-1.313 2.348-1.313 6.93.016 13.875 0 20.804 0H50.18c1.007 0 1.88-.267 2.517-1.082.553-.715.822-1.497.453-2.395-.42-1.015-1.158-1.58-2.265-1.714-3.456-.449-6.912-.865-10.352-1.397-2.415-.366-4.865-.599-7.297-.932-2.4-.316-4.799-.682-7.198-.998-2.516-.333-5.033-.632-7.55-.965a399.409 399.409 0 0 1-7.7-1.048c-1.057-.166-1.728-.881-2.03-1.88-1.762-5.772-3.49-11.578-5.235-17.384a500.254 500.254 0 0 0-2.667-8.55c-.504-1.547.553-3.277 2.18-3.427.554-.05 1.125-.05 1.678-.05 17.734 0 35.45-.017 53.184.017.822 0 1.241-.217 1.543-.999 1.862-4.94 5.453-7.968 10.587-9.249.905-.233 1.811-.3 2.734-.3 1.56-.016 2.92 1.115 3.037 2.53.1 1.363-1.124 2.694-2.735 2.81-1.241.084-2.432.217-3.59.716-2.768 1.214-4.446 3.327-5.352 6.139-1.359 4.192-2.735 8.367-4.11 12.543-1.493 4.574-3.004 9.15-4.497 13.724a104.313 104.313 0 0 1-1.09 3.227c-.218.6-.118.998.47 1.381 2.768 1.813 4.026 4.408 3.64 7.669-.369 2.994-2.063 5.057-4.831 6.288-.235.117-.47.25-.705.383Zm-6.594-41.606c-1.728 0-3.389.017-5.066-.016-.671-.017-.906.2-.956.898-.084 1.763-.269 3.527-.437 5.29-.218 2.446-.503 4.891-.688 7.353-.218 2.928-.486 5.84-.738 8.767-.201 2.18-.352 2.213 1.812 2.362.705.05.94-.15 1.074-.782.57-2.695 1.191-5.39 1.778-8.101.906-4.126 1.829-8.251 2.668-12.394.235-1.048.604-2.079.553-3.377Zm-11.408.167c-.302-.2-.638-.167-.973-.167-1.208 0-2.4.05-3.607-.016-.839-.05-1.14.216-1.09 1.081.217 3.144.15 6.305.368 9.466.269 3.643.168 7.303.453 10.962.151 1.88.101 1.847 1.93 2.08.772.1 1.023-.2 1.107-.898.269-2.363.436-4.742.62-7.104.286-3.676.706-7.32.907-10.996.1-1.48.52-2.928.285-4.408Zm19.63-.15c0-.017 0-.017 0 0-.387-.017-.79-.017-1.175-.017-1.477 0-1.46.034-1.762 1.464a977.567 977.567 0 0 1-2.5 11.762c-.822 3.81-1.677 7.602-2.516 11.412-.1.465-.017.815.553.898.303.033.588.15.907.2.47.066.788-.034.939-.583.218-.798.52-1.58.772-2.362 1.241-3.76 2.483-7.52 3.708-11.262 1.19-3.593 2.365-7.187 3.556-10.797.151-.449.017-.715-.486-.715-.655-.017-1.326 0-1.997 0Zm-36.726 0c.89 4.675 1.745 9.15 2.617 13.625.504 2.595.99 5.206 1.494 7.802.067.349.084.748.57.815.705.1 1.426.216 2.114.316.252-.35.184-.699.168-1.015-.353-3.693-.218-7.403-.504-11.112-.251-3.194-.1-6.422-.386-9.616-.033-.35.017-.798-.503-.798-1.812-.034-3.624-.017-5.57-.017Zm-1.426 21.477c-.084-1.598-.486-2.928-.738-4.276-.453-2.495-.906-5.007-1.376-7.502-.486-2.579-1.023-5.14-1.46-7.736-.318-1.913-.318-1.98-2.247-1.98H8.137c-.302 0-.62-.05-.923.233.151 1.032.537 2.046.856 3.061 1.711 5.69 3.44 11.379 5.15 17.085.084.283.168.599.453.649.873.183 1.779.3 2.802.465ZM21.81 58.34c-1.442.016-2.55 1.098-2.516 2.528.033 1.747 1.19 2.529 2.567 2.612 1.375.083 2.533-1.164 2.55-2.562.016-1.414-1.158-2.595-2.6-2.578Zm26.206 2.528c-.017-1.414-1.107-2.528-2.533-2.528-1.426-.017-2.651 1.197-2.617 2.578.033 1.348 1.258 2.579 2.566 2.595 1.376.017 2.584-1.23 2.584-2.645Zm5.637 24.904c0 1.264-.721 2.262-1.745 2.545-1.342.366-2.583-.067-3.238-1.264-1.258-2.28-2.885-4.193-4.982-5.74-3.238-2.378-6.913-3.56-10.906-3.293-6.257.432-11.022 3.426-14.143 8.866-.922 1.614-2.801 2.046-4.11.982-.973-.782-1.275-2.23-.637-3.394 2.634-4.84 6.543-8.284 11.693-10.314 2.567-1.015 5.268-1.647 8.003-1.547 8.69.316 15.35 4.159 19.713 11.711.268.5.42.982.352 1.448Z"/></g></symbol><symbol xmlns="http://www.w3.org/2000/svg" id="dagger" fill="currentColor" viewBox="0 0 27 27"><g clip-path="url(#b)"><path d="m20.011 16.838-3.51-3.51 3.51-3.51c.862-.861.844-2.291-.019-3.154-.862-.862-2.292-.88-3.154-.019l-3.51 3.51-3.51-3.51c-.862-.862-2.292-.843-3.154.02-.863.862-.881 2.292-.019 3.154l3.51 3.51-3.51 3.509c-.862.862-.844 2.292.019 3.155.862.862 2.292.88 3.155.018l3.51-3.51 3.509 3.51c.862.863 2.292.844 3.154-.018.863-.863.881-2.293.02-3.155Z"/></g><defs><clipPath id="b"><path d="m13.328 0 13.328 13.328-13.328 13.329L0 13.328z"/></clipPath></defs></symbol><symbol xmlns="http://www.w3.org/2000/svg" id="message" fill="currentColor" viewBox="0 0 21 20"><path stroke="currentColor" stroke-linecap="round" stroke-linejoin="round" stroke-width="1.5" d="m16.268 7.061-4.266 3.434a2.223 2.223 0 0 1-2.746 0L4.954 7.061"/><path fill-rule="evenodd" stroke="currentColor" stroke-linecap="round" stroke-linejoin="round" stroke-width="1.5" d="M5.888 1.5h9.428c1.36.015 2.653.59 3.58 1.59a5.017 5.017 0 0 1 1.326 3.704v6.528a5.017 5.017 0 0 1-1.326 3.704 4.957 4.957 0 0 1-3.58 1.59H5.888C2.968 18.616 1 16.241 1 13.322V6.794C1 3.875 2.968 1.5 5.888 1.5Z" clip-rule="evenodd"/></symbol><symbol xmlns="http://www.w3.org/2000/svg" id="facebook" fill="currentColor" viewBox="0 0 19 19"><g clip-path="url(#c)"><path d="M16.625 0H2.375A2.377 2.377 0 0 0 0 2.375v14.25A2.377 2.377 0 0 0 2.375 19H9.5v-6.531H7.125V9.5H9.5V7.125a3.562 3.562 0 0 1 3.563-3.563h2.374v2.97H14.25c-.655 0-1.188-.063-1.188.593V9.5h2.97l-1.188 2.969h-1.781V19h3.562A2.377 2.377 0 0 0 19 16.625V2.375A2.377 2.377 0 0 0 16.625 0Z"/></g><defs><clipPath id="c"><path d="M0 0h19v19H0z"/></clipPath></defs></symbol><symbol xmlns="http://www.w3.org/2000/svg" id="youtube" fill="currentColor" viewBox="0 0 20 19"><g clip-path="url(#d)"><path d="M15.813 0H3.937A3.562 3.562 0 0 0 .375 3.562v11.875A3.562 3.562 0 0 0 3.937 19h11.875a3.562 3.562 0 0 0 3.563-3.563V3.563A3.562 3.562 0 0 0 15.812 0Zm-.101 11.627c-.065.79-.665 1.8-1.505 1.946-2.69.21-5.877.183-8.663 0-.869-.11-1.44-1.157-1.504-1.946-.136-1.66-.136-2.606 0-4.266.064-.79.65-1.83 1.504-1.926 2.754-.231 5.96-.182 8.663 0 .967.036 1.44 1.032 1.505 1.823.133 1.66.133 2.709 0 4.369Z"/><path d="M8.688 11.875 12.25 9.5 8.687 7.125v4.75Z"/></g><defs><clipPath id="d"><path d="M.375 0h19v19h-19z"/></clipPath></defs></symbol><symbol xmlns="http://www.w3.org/2000/svg" id="instagram" fill="currentColor" viewBox="0 0 19 19"><g clip-path="url(#e)"><path d="M11.18 8.28a2.076 2.076 0 0 0-1.688-.874c-.693 0-1.31.346-1.687.874a2.14 2.14 0 0 0-.392 1.22c0 1.145.934 2.08 2.08 2.08a2.085 2.085 0 0 0 2.079-2.08c0-.452-.151-.874-.392-1.22Z"/><path d="M12.49 8.295c.152.301.242.783.242 1.205a3.244 3.244 0 0 1-3.24 3.24A3.235 3.235 0 0 1 6.254 9.5c0-.437.09-.904.241-1.205H4.671v4.836c0 .633.557 1.19 1.19 1.19h7.263c.633 0 1.19-.557 1.19-1.19V8.295h-1.823Zm1.282-3.345h-1.748v2.004h1.989V4.935l-.241.015Z"/><path d="M14.224.009H4.76A4.771 4.771 0 0 0 0 4.77v9.478c0 2.606 2.14 4.746 4.761 4.746h9.478A4.771 4.771 0 0 0 19 14.232V4.77C18.985 2.148 16.845.01 14.224.01Zm1.145 8.272v4.851c0 1.266-.98 2.245-2.245 2.245H5.86a2.213 2.213 0 0 1-2.245-2.245V5.87c0-1.266.98-2.245 2.245-2.245h7.263c1.265 0 2.245.98 2.245 2.245v2.41Z"/></g><defs><clipPath id="e"><path d="M0 0h19v19H0z"/></clipPath></defs></symbol><symbol xmlns="http://www.w3.org/2000/svg" id="arrow" fill="currentColor" viewBox="0 0 7 12"><path d="M.47 5.47a.75.75 0 0 0 0 1.06l4.773 4.773a.75.75 0 1 0 1.06-1.06L2.061 6l4.242-4.243a.75.75 0 0 0-1.06-1.06L.47 5.47ZM2 5.25H1v1.5h1v-1.5Z"/></symbol><symbol xmlns="http://www.w3.org/2000/svg" id="shopping-bag" fill="currentColor" viewBox="0 0 19 19"><g clip-path="url(#f)"><path d="M18.125 18.527 16.705 5.3a.433.433 0 0 0-.426-.378h-2.626v-.805A4.12 4.12 0 0 0 9.536 0a4.12 4.12 0 0 0-4.117 4.117v.805H2.72a.433.433 0 0 0-.426.378L.875 18.527a.424.424 0 0 0 .095.331c.071.095.19.142.308.142h16.444a.381.381 0 0 0 .308-.142.424.424 0 0 0 .095-.331ZM13.227 7.31c.213 0 .378.166.378.379a.374.374 0 0 1-.378.378.374.374 0 0 1-.379-.378c0-.213.166-.379.379-.379ZM6.27 4.117A3.272 3.272 0 0 1 9.536.852 3.272 3.272 0 0 1 12.8 4.117v.805H6.27v-.805Zm-.426 3.194c.213 0 .379.166.379.379a.374.374 0 0 1-.379.378.374.374 0 0 1-.378-.378c0-.213.165-.379.378-.379Zm-4.07 10.814L3.1 5.75h2.318v.78a1.203 1.203 0 0 0-.804 1.136c0 .663.544 1.207 1.207 1.207.662 0 1.206-.544 1.206-1.207 0-.52-.33-.97-.804-1.135V5.75h6.53v.78a1.203 1.203 0 0 0-.804 1.136c0 .663.544 1.207 1.207 1.207.662 0 1.207-.544 1.207-1.207 0-.52-.332-.97-.805-1.135V5.75h2.413l1.326 12.375H1.775Z"/></g><defs><clipPath id="f"><path d="M0 0h19v19H0z"/></clipPath></defs></symbol><symbol xmlns="http://www.w3.org/2000/svg" id="plus" fill="currentColor" viewBox="0 0 18 18"><rect width="3.273" height="18" x="7.364" rx="1.636"/><rect width="3.273" height="18" y="10.636" rx="1.636" transform="rotate(-90 0 10.636)"/></symbol><symbol xmlns="http://www.w3.org/2000/svg" id="minus" fill="currentColor" viewBox="0 0 18 4"><rect width="3.273" height="18" y="3.636" rx="1.636" transform="rotate(-90 0 3.636)"/></symbol></symbol></svg>