<svg width="98" height="112" viewBox="0 0 98 112" fill="none" xmlns="http://www.w3.org/2000/svg">
<circle cx="49" cy="49" r="49" fill="url(#paint0_linear_19_362)"/>
<path d="M50.9994 29.848L47.3034 41.024H47.0474L44.4314 34.624L41.8634 41.008H41.5914L37.8634 29.848H40.0714L42.0154 36.32L44.3434 29.848H44.6154L46.9754 36.296L48.8074 29.848H50.9994ZM58.2759 39.192V41H52.1319V29.848H57.9559V31.592H54.1319V34.2H57.1719V35.896H54.1319V39.192H58.2759ZM21.3096 59.384H17.3256L16.7336 61H14.4936L19.2136 49.656H19.3736L24.1096 61H21.9336L21.3096 59.384ZM20.7176 57.832L19.5496 54.792L19.2776 53.896L19.0216 54.792L17.9016 57.832H20.7176ZM30.0838 61L27.2198 56.968V61H25.1878V49.848H28.2918C30.9371 49.848 32.2598 51.032 32.2598 53.4C32.2598 53.928 32.1744 54.448 32.0038 54.96C31.8331 55.4667 31.5531 55.9173 31.1638 56.312C30.7798 56.7067 30.2864 56.9787 29.6838 57.128L32.5638 61H30.0838ZM28.0677 55.96C28.5211 55.96 28.9078 55.8533 29.2278 55.64C29.5531 55.4213 29.7984 55.1333 29.9638 54.776C30.1291 54.4133 30.2118 54.0187 30.2118 53.592C30.2118 52.856 30.0411 52.3147 29.6998 51.968C29.3638 51.6213 28.8038 51.448 28.0198 51.448H27.2198V55.96H28.0677ZM40.5181 59.192V61H34.3741V49.848H40.1981V51.592H36.3741V54.2H39.4141V55.896H36.3741V59.192H40.5181ZM53.3868 49.848V61H51.3068V56.264H47.6268V61H45.5628V49.848H47.6268V54.504H51.3068V49.848H53.3868ZM62.1744 59.192V61H56.0304V49.848H61.8544V51.592H58.0304V54.2H61.0704V55.896H58.0304V59.192H62.1744ZM69.0681 61L66.2041 56.968V61H64.1721V49.848H67.2761C69.9215 49.848 71.2441 51.032 71.2441 53.4C71.2441 53.928 71.1588 54.448 70.9881 54.96C70.8175 55.4667 70.5375 55.9173 70.1481 56.312C69.7641 56.7067 69.2708 56.9787 68.6681 57.128L71.5481 61H69.0681ZM67.0521 55.96C67.5055 55.96 67.8921 55.8533 68.2121 55.64C68.5375 55.4213 68.7828 55.1333 68.9481 54.776C69.1135 54.4133 69.1961 54.0187 69.1961 53.592C69.1961 52.856 69.0255 52.3147 68.6841 51.968C68.3481 51.6213 67.7881 51.448 67.0041 51.448H66.2041V55.96H67.0521ZM79.5025 59.192V61H73.3585V49.848H79.1825V51.592H75.3585V54.2H78.3985V55.896H75.3585V59.192H79.5025ZM81.5963 48.696H83.7883L83.5643 56.952H81.8043L81.5963 48.696ZM81.7723 58.616H83.5963V61H81.7723V58.616Z" fill="white"/>
<path d="M48.5 112L36.8087 96.25L60.1913 96.25L48.5 112Z" fill="#6D9B74"/>
<defs>
<linearGradient id="paint0_linear_19_362" x1="4.74193" y1="5.56818" x2="109.682" y2="54.3384" gradientUnits="userSpaceOnUse">
<stop stop-color="#618967"/>
<stop offset="1" stop-color="#72A479"/>
</linearGradient>
</defs>
</svg>
