<svg width="0" height="0" class="hidden">
  <symbol  xmlns="http://www.w3.org/2000/svg" fill="white" viewBox="0 0 98 19" id="logo">
    <path d="M4.075 14.7H10.75V18H0.625V0.499999H4.075V14.7ZM30.1107 15.725C28.3441 17.475 26.1941 18.35 23.6607 18.35C21.1274 18.35 18.9774 17.475 17.2107 15.725C15.4607 13.9583 14.5857 11.8 14.5857 9.25C14.5857 6.7 15.4607 4.55 17.2107 2.8C18.9774 1.03333 21.1274 0.149999 23.6607 0.149999C26.1941 0.149999 28.3441 1.03333 30.1107 2.8C31.8774 4.55 32.7607 6.7 32.7607 9.25C32.7607 11.8 31.8774 13.9583 30.1107 15.725ZM19.6357 13.375C20.7191 14.4417 22.0607 14.975 23.6607 14.975C25.2607 14.975 26.6024 14.4417 27.6857 13.375C28.7691 12.2917 29.3107 10.9167 29.3107 9.25C29.3107 7.58333 28.7691 6.20833 27.6857 5.125C26.6024 4.04167 25.2607 3.5 23.6607 3.5C22.0607 3.5 20.7191 4.04167 19.6357 5.125C18.5524 6.20833 18.0107 7.58333 18.0107 9.25C18.0107 10.9167 18.5524 12.2917 19.6357 13.375ZM56.1105 8.6V9.95C56.1105 12.45 55.3105 14.475 53.7105 16.025C52.1105 17.575 50.0439 18.35 47.5105 18.35C44.8105 18.35 42.5689 17.475 40.7855 15.725C39.0189 13.9583 38.1355 11.8083 38.1355 9.275C38.1355 6.725 39.0105 4.56667 40.7605 2.8C42.5272 1.03333 44.7105 0.149999 47.3105 0.149999C48.9439 0.149999 50.4355 0.524999 51.7855 1.275C53.1355 2.00833 54.1855 2.99167 54.9355 4.225L51.9855 5.925C51.5689 5.20833 50.9355 4.625 50.0855 4.175C49.2522 3.725 48.3189 3.5 47.2855 3.5C45.6189 3.5 44.2439 4.05 43.1605 5.15C42.0939 6.23333 41.5605 7.60833 41.5605 9.275C41.5605 10.925 42.1022 12.2917 43.1855 13.375C44.2855 14.4417 45.7355 14.975 47.5355 14.975C48.8689 14.975 49.9689 14.6833 50.8355 14.1C51.7189 13.5 52.3189 12.6833 52.6355 11.65H47.3355V8.6H56.1105ZM77.0395 15.725C75.2728 17.475 73.1228 18.35 70.5895 18.35C68.0561 18.35 65.9061 17.475 64.1395 15.725C62.3895 13.9583 61.5145 11.8 61.5145 9.25C61.5145 6.7 62.3895 4.55 64.1395 2.8C65.9061 1.03333 68.0561 0.149999 70.5895 0.149999C73.1228 0.149999 75.2728 1.03333 77.0395 2.8C78.8061 4.55 79.6895 6.7 79.6895 9.25C79.6895 11.8 78.8061 13.9583 77.0395 15.725ZM66.5645 13.375C67.6478 14.4417 68.9895 14.975 70.5895 14.975C72.1895 14.975 73.5311 14.4417 74.6145 13.375C75.6978 12.2917 76.2395 10.9167 76.2395 9.25C76.2395 7.58333 75.6978 6.20833 74.6145 5.125C73.5311 4.04167 72.1895 3.5 70.5895 3.5C68.9895 3.5 67.6478 4.04167 66.5645 5.125C65.4811 6.20833 64.9395 7.58333 64.9395 9.25C64.9395 10.9167 65.4811 12.2917 66.5645 13.375ZM91.2045 18.35C89.4712 18.35 88.0128 17.9667 86.8295 17.2C85.6462 16.4167 84.8128 15.3583 84.3295 14.025L87.2795 12.3C87.9628 14.0833 89.3045 14.975 91.3045 14.975C92.2712 14.975 92.9795 14.8 93.4295 14.45C93.8795 14.1 94.1045 13.6583 94.1045 13.125C94.1045 12.5083 93.8295 12.0333 93.2795 11.7C92.7295 11.35 91.7462 10.975 90.3295 10.575C89.5462 10.3417 88.8795 10.1083 88.3295 9.875C87.7962 9.64167 87.2545 9.33333 86.7045 8.95C86.1712 8.55 85.7628 8.05 85.4795 7.45C85.1962 6.85 85.0545 6.15 85.0545 5.35C85.0545 3.76667 85.6128 2.50833 86.7295 1.575C87.8628 0.624999 89.2212 0.149999 90.8045 0.149999C92.2212 0.149999 93.4628 0.499999 94.5295 1.2C95.6128 1.88333 96.4545 2.84167 97.0545 4.075L94.1545 5.75C93.4545 4.25 92.3378 3.5 90.8045 3.5C90.0878 3.5 89.5212 3.66667 89.1045 4C88.7045 4.31667 88.5045 4.73333 88.5045 5.25C88.5045 5.8 88.7295 6.25 89.1795 6.6C89.6462 6.93333 90.5295 7.3 91.8295 7.7C92.3628 7.86667 92.7628 8 93.0295 8.1C93.3128 8.18333 93.6878 8.325 94.1545 8.525C94.6378 8.70833 95.0045 8.88333 95.2545 9.05C95.5212 9.21667 95.8212 9.44167 96.1545 9.725C96.4878 10.0083 96.7378 10.3 96.9045 10.6C97.0878 10.9 97.2378 11.2667 97.3545 11.7C97.4878 12.1167 97.5545 12.575 97.5545 13.075C97.5545 14.6917 96.9628 15.975 95.7795 16.925C94.6128 17.875 93.0878 18.35 91.2045 18.35Z" ></path>
  </symbol>

  <symbol fill="none"  xmlns="http://www.w3.org/2000/svg" viewBox="0 0 18 21" id="location">
    <path fill-rule="evenodd" clip-rule="evenodd" d="M1.23914 9.39129C1.25354 5.15071 4.7029 1.72471 8.94348 1.73912C13.1841 1.75353 16.6101 5.20288 16.5957 9.44347V9.53042C16.5435 12.2869 15.0044 14.8348 13.1174 16.8261C12.0382 17.9467 10.8331 18.9388 9.52609 19.7826C9.1766 20.0849 8.6582 20.0849 8.3087 19.7826C6.3602 18.5143 4.65007 16.9131 3.25653 15.0522C2.01449 13.4294 1.3093 11.4597 1.23914 9.41738L1.23914 9.39129Z" stroke="#CFCFCF" stroke-width="1.5" stroke-linecap="round" stroke-linejoin="round"></path>
    <circle cx="8.91741" cy="9.53912" r="2.46087" stroke="#CFCFCF" stroke-width="1.5" stroke-linecap="round" stroke-linejoin="round"></circle>
  </symbol>

  <symbol fill="none" xmlns="http://www.w3.org/2000/svg" stroke="#628b68" viewBox="0 0 24 24" id="menu">
    <g id="SVGRepo_bgCarrier" stroke-width="0"></g>
    <g id="SVGRepo_tracerCarrier" stroke-linecap="round" stroke-linejoin="round"></g>
    <g id="SVGRepo_iconCarrier">
      <path d="M4 18L20 18" stroke="#628b68" stroke-width="2" stroke-linecap="round"></path>
      <path d="M4 12L20 12" stroke="#628b68" stroke-width="2" stroke-linecap="round"></path>
      <path d="M4 6L20 6" stroke="#628b68" stroke-width="2" stroke-linecap="round"></path>
    </g>
  </symbol>

  <symbol fill="none" xmlns="http://www.w3.org/2000/svg" viewBox="0 0 21 21" id="search">
    <circle cx="9.76657" cy="9.7666" r="8.98856" stroke="white" stroke-width="1.5" stroke-linecap="round" stroke-linejoin="round"></circle>
    <path d="M16.0183 16.4851L19.5423 20" stroke="white" stroke-width="1.5" stroke-linecap="round" stroke-linejoin="round"></path>
  </symbol>

  <symbol fill="none" xmlns="http://www.w3.org/2000/svg" viewBox="0 0 20 21" id="basket">
    <path fill-rule="evenodd" clip-rule="evenodd" d="M5.42226 17.8203C5.84426 17.8203 6.18726 18.1633 6.18726 18.5853C6.18726 19.0073 5.84426 19.3493 5.42226 19.3493C5.00026 19.3493 4.65826 19.0073 4.65826 18.5853C4.65826 18.1633 5.00026 17.8203 5.42226 17.8203Z" stroke="white" stroke-width="1.5" stroke-linecap="round" stroke-linejoin="round"></path>
    <path fill-rule="evenodd" clip-rule="evenodd" d="M16.6747 17.8203C17.0967 17.8203 17.4397 18.1633 17.4397 18.5853C17.4397 19.0073 17.0967 19.3493 16.6747 19.3493C16.2527 19.3493 15.9097 19.0073 15.9097 18.5853C15.9097 18.1633 16.2527 17.8203 16.6747 17.8203Z" stroke="white" stroke-width="1.5" stroke-linecap="round" stroke-linejoin="round"></path>
    <path d="M0.749878 1.25L2.82988 1.61L3.79288 13.083C3.87088 14.018 4.65188 14.736 5.58988 14.736H16.5019C17.3979 14.736 18.1579 14.078 18.2869 13.19L19.2359 6.632C19.3529 5.823 18.7259 5.099 17.9089 5.099H3.16388" stroke="white" stroke-width="1.5" stroke-linecap="round" stroke-linejoin="round"></path>
    <path d="M12.1254 8.79501H14.8984" stroke="white" stroke-width="1.5" stroke-linecap="round" stroke-linejoin="round"></path>
  </symbol>

  <symbol fill="none" xmlns="http://www.w3.org/2000/svg" viewBox="0 0 14 14" id="tel">
    <path fill-rule="evenodd" clip-rule="evenodd" d="M0.993287 2.249C1.20417 1.89915 2.36678 0.629167 3.19526 0.667506C3.44311 0.68873 3.66222 0.837979 3.84024 1.01187H3.84092C4.249 1.4117 5.41982 2.92062 5.48555 3.23829C5.64782 4.01739 4.7187 4.46651 5.00284 5.25178C5.72725 7.02428 6.97544 8.27236 8.74879 8.99602C9.53345 9.28082 9.98261 8.35246 10.7618 8.51404C11.0795 8.58045 12.5892 9.75048 12.9884 10.1592V10.1592C13.1616 10.3365 13.3123 10.5563 13.3328 10.8041C13.3636 11.677 12.0148 12.8553 11.7518 13.0059C11.1315 13.4502 10.3222 13.442 9.33557 12.9833C6.58243 11.8379 2.1826 7.52132 1.01588 4.66437C0.569463 3.6833 0.539336 2.86859 0.993287 2.249Z" stroke="white" stroke-linecap="round" stroke-linejoin="round"></path>
    <path d="M8.71027 0.833313C11.1783 1.10731 13.1269 3.05398 13.4043 5.52131" stroke="white" stroke-linecap="round" stroke-linejoin="round"></path>
    <path d="M8.71027 3.19531C9.89027 3.42531 10.8123 4.34731 11.0423 5.52731" stroke="white" stroke-linecap="round" stroke-linejoin="round"></path>
  </symbol>

  <symbol  xmlns="http://www.w3.org/2000/svg" viewBox="0 0 70 62" id="onion">
    <path d="M29.5081 55.2603C27.9714 55.7961 26.3884 56.1358 24.7824 56.2816C25.9247 55.7146 27.0553 54.9836 28.1582 54.0892C28.5982 53.7325 28.6658 53.0866 28.309 52.6465C27.9521 52.2065 27.3061 52.1391 26.8663 52.4958C24.0464 54.7823 21.5155 55.5849 19.4265 55.6738C21.0107 54.1924 22.9224 51.5022 25.1789 46.8863C25.4277 46.3772 25.2168 45.763 24.7079 45.5143C24.199 45.2658 23.5847 45.4764 23.3359 45.9853C19.9683 52.8736 17.3669 55.224 16.2695 55.2237C16.1961 55.2237 16.1292 55.2132 16.0694 55.1928C15.7029 55.0676 15.469 54.4891 15.3622 54.1552C13.5679 48.5501 18.7646 28.8731 25.6338 19.29L30.2611 12.8348C30.5216 12.4711 30.7827 11.9503 30.9962 11.3687L31.1418 10.9717L31.2092 10.9946L31.0815 11.3977C30.8943 11.9885 30.7821 12.5601 30.7656 13.0074L30.4822 20.7492C30.4616 21.3154 30.9037 21.7911 31.4698 21.8119C31.4826 21.8123 31.4953 21.8126 31.5079 21.8126C32.0572 21.8126 32.512 21.3777 32.5323 20.8243L32.773 14.2475L34.2028 18.3875C34.3494 18.812 34.747 19.0787 35.1722 19.0787C35.2832 19.0787 35.3962 19.0605 35.5071 19.0222C36.0426 18.8373 36.3267 18.2534 36.1418 17.7179L36.0912 17.5716L36.0962 17.5801C36.3889 18.065 37.0191 18.2214 37.5043 17.9285C37.9894 17.6359 38.1455 17.0056 37.8528 16.5205L36.3782 14.0763C36.1057 13.6244 36.0228 13.0716 36.1511 12.5597L38.4701 3.29939C38.6258 2.67823 38.4809 2.03887 38.0729 1.54544C37.6648 1.052 37.0652 0.789696 36.4247 0.825801L30.9985 1.13242C30.2455 1.17509 29.5894 1.63064 29.2861 2.32142L26.2751 9.1853C26.0632 9.66834 25.6596 10.0546 25.1676 10.2451L14.5454 14.3585C9.87266 16.168 6.05115 19.2666 3.49359 23.319C1.11915 27.0813 -0.0873536 31.4826 0.0044128 36.0473C0.0961792 40.612 1.47869 44.9614 4.00248 48.625C6.72087 52.5714 10.664 55.5137 15.4057 57.1339C17.9087 57.9892 20.4538 58.417 22.9709 58.4168C25.4243 58.4168 27.8509 58.0102 30.183 57.1971C30.7179 57.0105 31.0003 56.4256 30.8137 55.8907C30.6272 55.3559 30.0428 55.0734 29.5081 55.2603ZM31.1506 3.17877L36.4611 2.87872L34.6749 10.0113L29.0034 8.07343L31.1506 3.17877ZM5.69229 47.4616C3.39704 44.1296 2.13952 40.1683 2.05596 36.0063C1.97226 31.8442 3.06949 27.8358 5.22895 24.414C7.54977 20.7367 11.0276 17.921 15.2867 16.2718L23.2562 13.1856L18.9277 16.0198C15.6976 18.1349 12.8628 21.2847 10.7296 25.1286C8.76161 28.6749 7.42054 32.7237 6.85106 36.8378C6.77338 37.399 7.16534 37.9168 7.72647 37.9944C7.7742 38.0011 7.82152 38.0042 7.86843 38.0042C8.37253 38.0042 8.81208 37.6323 8.88319 37.1189C10.0163 28.932 14.2958 21.5047 20.0516 17.7359L27.9151 12.5869L23.9668 18.095C20.7157 22.6304 17.4683 29.9389 15.2802 37.6449C13.3751 44.3543 12.6051 50.1181 13.124 53.5207C12.101 52.6533 11.2323 51.5395 10.529 50.1819C9.29416 47.7987 8.62731 44.7449 8.60064 41.3505C8.59613 40.7841 8.13251 40.3242 7.56687 40.333C7.00041 40.3375 6.54486 40.8003 6.54923 41.3669C6.57768 44.9713 7.26641 48.1475 8.51558 50.7214C7.46061 49.7417 6.51313 48.6532 5.69229 47.4616Z" ></path>
    <path d="M48.1502 17.4775C36.1021 17.4775 26.3002 27.2794 26.3002 39.3277C26.3002 51.3757 36.102 61.1776 48.1502 61.1776C60.1984 61.1776 70.0002 51.3757 70.0002 39.3277C70 27.2794 60.1982 17.4775 48.1502 17.4775ZM48.1502 59.1261C37.2333 59.1261 28.3516 50.2446 28.3516 39.3275C28.3516 28.4105 37.2331 19.5288 48.1502 19.5288C59.0672 19.5288 67.9487 28.4105 67.9487 39.3275C67.9487 50.2446 59.0671 59.1261 48.1502 59.1261Z" ></path>
    <path d="M48.1502 21.6079C38.3796 21.6079 30.4306 29.5569 30.4306 39.3274C30.4306 49.0979 38.3796 57.0468 48.1502 57.0468C57.9208 57.0468 65.8699 49.0979 65.8699 39.3274C65.8699 29.5569 57.9208 21.6079 48.1502 21.6079ZM48.1502 54.9956C39.5107 54.9956 32.482 47.9669 32.482 39.3276C32.482 30.6883 39.5107 23.6595 48.1502 23.6595C56.7896 23.6595 63.8184 30.6883 63.8184 39.3276C63.8184 47.9669 56.7896 54.9956 48.1502 54.9956Z" ></path>
    <path d="M48.1502 26.635C41.1515 26.635 35.4577 32.3289 35.4577 39.3276C35.4577 46.3262 41.1515 52.0201 48.1502 52.0201C52.843 52.0201 57.1358 49.4399 59.3532 45.2863C59.6201 44.7866 59.4312 44.1653 58.9315 43.8984C58.4316 43.6315 57.8103 43.8205 57.5436 44.3202C55.6835 47.8045 52.0843 49.9689 48.1502 49.9689C42.2828 49.9689 37.5091 45.1954 37.5091 39.3278C37.5091 33.4602 42.2828 28.6866 48.1502 28.6866C54.0178 28.6866 58.7914 33.4602 58.7914 39.3278C58.7914 39.7019 58.7702 40.0882 58.7285 40.4752C58.6678 41.0384 59.0752 41.5441 59.6384 41.605C60.2013 41.6658 60.7073 41.2583 60.7682 40.6951C60.8177 40.2353 60.8428 39.7753 60.8428 39.3279C60.8427 32.3289 55.1488 26.635 48.1502 26.635Z" ></path>
    <path d="M40.7704 39.3276C40.7704 43.3969 44.0809 46.7075 48.1502 46.7075C52.2195 46.7075 55.5301 43.3969 55.5301 39.3276C55.5301 35.2583 52.2194 31.9478 48.1502 31.9478C44.0811 31.9478 40.7704 35.2583 40.7704 39.3276ZM53.4787 39.3276C53.4787 42.2657 51.0883 44.6561 48.1502 44.6561C45.2122 44.6561 42.8218 42.2657 42.8218 39.3276C42.8218 36.3896 45.2121 33.9992 48.1502 33.9992C51.0884 33.9992 53.4787 36.3895 53.4787 39.3276Z" ></path>
  </symbol>

  <symbol  xmlns="http://www.w3.org/2000/svg" viewBox="0 0 60 60" id="delivery">
    <path d="M47.6953 24.7266H33.1389L45.7077 2.62665C46.0172 2.08283 46.0135 1.41495 45.699 0.873872C45.3845 0.332795 44.8055 0 44.1797 0H23.0859C22.3288 0 21.6563 0.48523 21.4178 1.20392L10.8709 32.9613C10.6929 33.4974 10.783 34.086 11.1136 34.5443C11.4441 35.002 11.9742 35.2735 12.539 35.2735H27.4562L17.9535 57.5524C17.6152 58.3457 17.9017 59.2667 18.6305 59.7277C19.3593 60.1887 20.3146 60.0527 20.8864 59.4077L49.0114 27.6499C50.013 26.5183 49.2082 24.7266 47.6953 24.7266ZM25.4388 48.9647L31.734 34.2055C32.2275 33.0483 31.3779 31.7578 30.1172 31.7578H14.9748L24.3544 3.51563H41.1575L28.5892 25.6151C27.9245 26.7838 28.7691 28.2422 30.1172 28.2422H43.7906L25.4388 48.9647Z" ></path>
  </symbol>

  <symbol  xmlns="http://www.w3.org/2000/svg" viewBox="0 0 61 61" id="chef">
    <path d="M16.6364 29.1137C16.6364 28.3474 16.0163 27.7273 15.25 27.7273C14.4837 27.7273 13.8636 28.3474 13.8636 29.1137C13.8636 32.7542 17.8792 37.7528 18.3368 38.3119C18.6117 38.645 19.0097 38.8183 19.4104 38.8183C19.719 38.8183 20.0305 38.7153 20.289 38.5041C20.8806 38.018 20.9659 37.1449 20.4812 36.5518C18.9948 34.7404 16.6364 31.1201 16.6364 29.1137Z" ></path>
    <path d="M45.75 27.7273C44.9837 27.7273 44.3636 28.3474 44.3636 29.1137C44.3636 31.1133 42.0051 34.7377 40.5186 36.5533C40.034 37.1449 40.1205 38.0182 40.7123 38.5041C40.9695 38.7153 41.2809 38.8183 41.5909 38.8183C41.9916 38.8183 42.3883 38.645 42.6632 38.3119C43.1208 37.7528 47.1364 32.7543 47.1364 29.1137C47.1364 28.3474 46.5163 27.7273 45.75 27.7273Z" ></path>
    <path d="M30.5001 27.7273C29.7337 27.7273 29.1136 28.3474 29.1136 29.1137V37.4319C29.1136 38.1982 29.7337 38.8183 30.5001 38.8183C31.2664 38.8183 31.8865 38.1982 31.8865 37.4319V29.1137C31.8863 28.3474 31.2662 27.7273 30.5001 27.7273Z" ></path>
    <path d="M45.75 5.5455C44.9099 5.5455 44.0319 5.65663 43.1202 5.82598C40.0668 2.26658 35.5467 0 30.5001 0C25.4534 0 20.9332 2.26658 17.8799 5.82585C16.9681 5.65663 16.0901 5.54537 15.2501 5.54537C6.84106 5.5455 0 12.3866 0 20.7955C0 26.5575 3.24929 31.7956 8.35068 34.3856L8.32365 55.3367C8.32235 56.849 8.90982 58.2706 9.97806 59.3401C11.0476 60.4111 12.4678 61 13.9801 61H47.0254C50.1448 61 52.6819 58.4628 52.6819 55.3435V34.3653C57.7644 31.7686 61.0001 26.5385 61.0001 20.7955C61 12.3866 54.1589 5.5455 45.75 5.5455ZM49.9091 55.3436C49.9091 56.9331 48.6149 58.2274 47.0253 58.2274H13.98C13.2097 58.2274 12.4853 57.9268 11.9397 57.3813C11.3954 56.8357 11.0949 56.1114 11.0962 55.3397L11.1035 49.9091H49.9091V55.3436ZM50.7675 32.2072C50.6943 32.237 50.6253 32.2722 50.5603 32.3142C50.3856 32.4225 50.2421 32.5661 50.1351 32.7312C50.0269 32.8949 49.9537 33.0846 49.9239 33.2876C49.9117 33.3648 49.9077 33.442 49.909 33.5205V47.1363H11.107L11.1248 33.5393C11.1261 33.4635 11.1221 33.3863 11.1113 33.3119C11.0815 33.102 11.0043 32.907 10.8919 32.7378C10.7862 32.5794 10.6482 32.4413 10.4803 32.3357C10.4113 32.2924 10.3381 32.2544 10.2623 32.2232C5.712 30.2334 2.77269 25.7519 2.77269 20.7955C2.77269 13.915 8.36966 8.31819 15.25 8.31819C15.5189 8.31819 15.8027 8.35068 16.0813 8.37265C14.6786 10.8104 13.8636 13.6274 13.8636 16.6364C13.8636 17.4027 14.4837 18.0228 15.25 18.0228C16.0163 18.0228 16.6364 17.4027 16.6364 16.6364C16.6364 8.99235 22.856 2.77269 30.5001 2.77269C38.1441 2.77269 44.3636 8.99235 44.3636 16.6364C44.3636 17.4027 44.9837 18.0228 45.75 18.0228C46.5163 18.0228 47.1364 17.4027 47.1364 16.6364C47.1364 13.6274 46.3214 10.8105 44.9187 8.37265C45.1973 8.35068 45.4811 8.31819 45.75 8.31819C52.6305 8.31819 58.2273 13.9152 58.2273 20.7955C58.2273 25.7344 55.3002 30.2102 50.7675 32.2072Z" ></path>
  </symbol>

  <symbol fill="none" xmlns="http://www.w3.org/2000/svg" viewBox="0 0 76 89" id="empty-basket">
    <g clip-path="url(#clip0_72_2838)">
      <path d="M52.9988 58.1078C54.6262 64.9616 50.0125 68.4052 46.2377 68.7379C43.4359 68.9874 41.0703 68.0226 39.292 65.8267C37.5304 63.6641 37.1948 61.1854 37.8827 58.4239H29.4271C30.1149 61.5014 29.662 64.2796 27.3635 66.5254C25.7865 68.0725 23.8403 68.8377 21.5922 68.7545C18.9582 68.6713 16.8778 67.5069 15.3344 65.4274C13.7741 63.3313 13.8076 60.9358 14.1767 58.4239C13.2037 58.2409 12.2809 58.3573 11.375 58.3241C9.26107 58.2575 7.98601 56.1614 8.99264 54.3648C9.49595 53.4831 10.2677 53.0506 11.3414 53.0506C18.2703 53.0672 25.216 53.0506 32.145 53.0506H50.1803C51.1869 53.0506 52.0593 52.7844 52.6968 51.9693C53.2505 51.254 53.5189 50.4721 53.1498 49.5738C52.7304 48.559 51.9922 47.9934 50.8849 47.8603C47.4288 47.4112 43.9728 46.9953 40.5335 46.4629C38.1176 46.097 35.6681 45.8641 33.2355 45.5314C30.8363 45.2153 28.4372 44.8493 26.0381 44.5332C23.5216 44.2005 21.005 43.9011 18.4884 43.5684C15.9216 43.2356 13.3547 42.9029 10.7878 42.5203C9.73083 42.354 9.05974 41.6386 8.75776 40.6405C6.99617 34.868 5.26813 29.0622 3.52332 23.2564C2.66769 20.3951 1.76173 17.5504 0.85577 14.7057C0.352459 13.1586 1.40941 11.4286 3.03679 11.2788C3.59043 11.2289 4.16085 11.2289 4.71449 11.2289C22.4478 11.2289 40.1644 11.2123 57.8977 11.2456C58.7198 11.2456 59.1392 11.0293 59.4412 10.2474C61.3035 5.30668 64.8937 2.27902 70.0275 0.998084C70.9335 0.765187 71.8394 0.698645 72.7622 0.698645C74.3224 0.682009 75.6814 1.81322 75.7988 3.22724C75.8995 4.59135 74.6748 5.9222 73.0642 6.03864C71.8227 6.12182 70.6315 6.25491 69.4739 6.75397C66.7057 7.96836 65.028 10.0811 64.122 12.8925C62.7631 17.0846 61.3873 21.2601 60.0116 25.4357C58.5185 30.0104 57.0085 34.5852 55.5154 39.16C55.1631 40.2413 54.8107 41.3226 54.4249 42.3872C54.2068 42.9861 54.3074 43.3854 54.8946 43.768C57.6628 45.5813 58.9211 48.1764 58.5352 51.437C58.1661 54.4314 56.4717 56.4942 53.7035 57.7252C53.4686 57.8416 53.2337 57.9747 52.9988 58.1078ZM46.4054 16.5024C44.6774 16.5024 43.0165 16.519 41.3388 16.4857C40.6677 16.4691 40.4328 16.6854 40.3825 17.3841C40.2986 19.1474 40.1141 20.9108 39.9463 22.6742C39.7282 25.1196 39.443 27.565 39.2584 30.0271C39.0403 32.9549 38.7719 35.8661 38.5202 38.794C38.3189 40.9732 38.1679 41.0065 40.3321 41.1562C41.0368 41.2061 41.2717 41.0065 41.4059 40.3743C41.9763 37.6794 42.597 34.9844 43.1842 32.2728C44.0902 28.1472 45.0129 24.0216 45.8518 19.8794C46.0867 18.8314 46.4558 17.8 46.4054 16.5024ZM34.9971 16.6687C34.6951 16.4691 34.3595 16.5024 34.024 16.5024C32.816 16.5024 31.6249 16.5523 30.4169 16.4857C29.5781 16.4358 29.2761 16.702 29.3264 17.5671C29.5445 20.7112 29.4774 23.8719 29.6955 27.0327C29.9639 30.6758 29.8633 34.3357 30.1485 37.9955C30.2995 39.8753 30.2491 39.842 32.0778 40.0749C32.8496 40.1747 33.1012 39.8753 33.1851 39.1766C33.4536 36.8143 33.6213 34.4355 33.8059 32.0732C34.0911 28.3968 34.5105 24.7536 34.7118 21.0771C34.8125 19.5966 35.2319 18.1493 34.9971 16.6687ZM54.6262 16.519C54.6262 16.5024 54.6262 16.5024 54.6262 16.519C54.2403 16.5024 53.8377 16.5024 53.4518 16.5024C51.9754 16.5024 51.9922 16.5357 51.6902 17.9663C50.8849 21.8923 50.0461 25.8016 49.1904 29.7276C48.3684 33.5371 47.5127 37.33 46.6739 41.1396C46.5732 41.6054 46.6571 41.9547 47.2275 42.0379C47.5295 42.0712 47.8147 42.1876 48.1335 42.2375C48.6032 42.3041 48.922 42.2043 49.073 41.6553C49.2911 40.8568 49.5931 40.0749 49.8447 39.293C51.0862 35.5334 52.3277 31.7738 53.5525 28.0308C54.7436 24.4375 55.918 20.8442 57.1092 17.2343C57.2602 16.7852 57.126 16.519 56.6227 16.519C55.9684 16.5024 55.2973 16.519 54.6262 16.519ZM17.9012 16.519C18.7904 21.1936 19.6461 25.6685 20.5185 30.1435C21.0218 32.7386 21.5083 35.3504 22.0116 37.9456C22.0787 38.2949 22.0955 38.6942 22.582 38.7607C23.2867 38.8605 24.0081 38.977 24.6959 39.0768C24.9476 38.7274 24.8805 38.3781 24.8637 38.062C24.5114 34.3689 24.6456 30.6592 24.3604 26.9495C24.1088 23.7555 24.2597 20.5282 23.9745 17.3342C23.941 16.9848 23.9913 16.5357 23.4712 16.5357C21.6593 16.5024 19.8474 16.519 17.9012 16.519ZM16.4752 37.9955C16.3913 36.3985 15.9887 35.0676 15.737 33.7201C15.284 31.2248 14.831 28.7128 14.3613 26.2175C13.8748 23.639 13.3379 21.0771 12.9017 18.482C12.5829 16.5689 12.5829 16.5024 10.6536 16.5024H8.13701C7.83502 16.5024 7.51626 16.4525 7.21427 16.7353C7.36526 17.7667 7.75113 18.7814 8.0699 19.7962C9.78116 25.4856 11.5092 31.1749 13.2205 36.8809C13.3043 37.1637 13.3882 37.4798 13.6734 37.5297C14.5458 37.7127 15.4518 37.8291 16.4752 37.9955ZM21.8103 58.3407C20.3675 58.3573 19.2602 59.4386 19.2937 60.8693C19.3273 62.616 20.4849 63.3979 21.8606 63.4811C23.2363 63.5643 24.394 62.3166 24.4107 60.9192C24.4275 59.5052 23.2531 58.3241 21.8103 58.3407ZM48.016 60.8693C47.9993 59.4553 46.9088 58.3407 45.4827 58.3407C44.0567 58.3241 42.8319 59.5385 42.8655 60.9192C42.899 62.2667 44.1238 63.4977 45.4324 63.5143C46.8081 63.531 48.016 62.2833 48.016 60.8693ZM53.6531 85.7727C53.6531 87.037 52.9317 88.0351 51.9083 88.3179C50.5661 88.6839 49.3246 88.2514 48.6703 87.0536C47.4121 84.7745 45.7847 82.8614 43.6876 81.3143C40.4496 78.9355 36.7754 77.7543 32.7825 78.0205C26.5246 78.453 21.76 81.4474 18.6394 86.8872C17.7167 88.5009 15.8377 88.9334 14.5291 87.8687C13.556 87.0869 13.254 85.6396 13.8915 84.4751C16.5255 79.6342 20.4346 76.1906 25.5851 74.1611C28.152 73.1463 30.8531 72.5142 33.5878 72.614C42.2783 72.93 48.9388 76.7728 53.3008 84.3254C53.5692 84.8244 53.7202 85.3069 53.6531 85.7727Z" fill="#70A177"></path>
    </g>
    <defs>
      <clipPath id="clip0_72_2838">
        <rect width="76" height="89" fill="white"></rect>
      </clipPath>
    </defs>
  </symbol>

  <symbol fill="none" xmlns="http://www.w3.org/2000/svg" viewBox="0 0 27 27" id="dagger">
    <g clip-path="url(#clip0_72_3154)">
      <path d="M20.0111 16.8379L16.5016 13.3284L20.0111 9.81893C20.8733 8.9567 20.8549 7.52675 19.9923 6.66422C19.1298 5.80168 17.6999 5.78327 16.8376 6.64549L13.3281 10.155L9.81862 6.64549C8.9564 5.78327 7.52645 5.80168 6.66391 6.66422C5.80137 7.52675 5.78296 8.9567 6.64519 9.81893L10.1547 13.3284L6.64519 16.8379C5.78296 17.7002 5.80137 19.1301 6.66391 19.9926C7.52645 20.8552 8.9564 20.8736 9.81862 20.0114L13.3281 16.5019L16.8376 20.0114C17.6998 20.8736 19.1298 20.8552 19.9923 19.9926C20.8549 19.1301 20.8733 17.7002 20.0111 16.8379Z" fill="white"></path>
    </g>
    <defs>
      <clipPath id="clip0_72_3154">
        <rect width="18.8492" height="18.8492" fill="white" transform="translate(13.3281) rotate(45)"></rect>
      </clipPath>
    </defs>
  </symbol>

  <symbol fill="none" xmlns="http://www.w3.org/2000/svg" viewBox="0 0 21 20" id="message">
    <path d="M16.2677 7.06104L12.0023 10.4953C11.1951 11.1282 10.0635 11.1282 9.25628 10.4953L4.95422 7.06104" stroke="#6D9C74" stroke-width="1.5" stroke-linecap="round" stroke-linejoin="round"></path>
    <path fill-rule="evenodd" clip-rule="evenodd" d="M5.88787 1.5H15.3158C16.6752 1.51525 17.969 2.08993 18.896 3.0902C19.823 4.09048 20.3022 5.42903 20.222 6.79412V13.322C20.3022 14.6871 19.823 16.0256 18.896 17.0259C17.969 18.0262 16.6752 18.6009 15.3158 18.6161H5.88787C2.96796 18.6161 1 16.2407 1 13.322V6.79412C1 3.87545 2.96796 1.5 5.88787 1.5Z" stroke="#6D9C74" stroke-width="1.5" stroke-linecap="round" stroke-linejoin="round"></path>
  </symbol>

  <symbol fill="none" xmlns="http://www.w3.org/2000/svg" viewBox="0 0 18 21" id="marker">
    <path fill-rule="evenodd" clip-rule="evenodd" d="M1.23914 9.39123C1.25354 5.15065 4.7029 1.72465 8.94348 1.73906C13.1841 1.75347 16.6101 5.20282 16.5957 9.44341V9.53036C16.5435 12.2869 15.0044 14.8347 13.1174 16.826C12.0382 17.9466 10.8331 18.9387 9.52609 19.7825C9.1766 20.0848 8.6582 20.0848 8.3087 19.7825C6.3602 18.5143 4.65007 16.9131 3.25653 15.0521C2.01449 13.4293 1.3093 11.4597 1.23914 9.41732L1.23914 9.39123Z" stroke="#6D9C74" stroke-width="1.5" stroke-linecap="round" stroke-linejoin="round"></path>
    <circle cx="8.91741" cy="9.53899" r="2.46087" stroke="#6D9C74" stroke-width="1.5" stroke-linecap="round" stroke-linejoin="round"></circle>
  </symbol>

  <symbol fill="none" xmlns="http://www.w3.org/2000/svg" viewBox="0 0 19 19" id="facebook">
    <g clip-path="url(#clip0_19_332)">
      <path d="M16.625 0H2.375C1.06519 0 0 1.06519 0 2.375V16.625C0 17.9348 1.06519 19 2.375 19H9.5V12.4688H7.125V9.5H9.5V7.125C9.5 5.15731 11.0948 3.5625 13.0625 3.5625H15.4375V6.53125H14.25C13.5945 6.53125 13.0625 6.4695 13.0625 7.125V9.5H16.0312L14.8438 12.4688H13.0625V19H16.625C17.9348 19 19 17.9348 19 16.625V2.375C19 1.06519 17.9348 0 16.625 0Z" fill="white"></path>
    </g>
    <defs>
      <clipPath id="clip0_19_332">
        <rect width="19" height="19" fill="white"></rect>
      </clipPath>
    </defs>
  </symbol>

  <symbol fill="none" xmlns="http://www.w3.org/2000/svg" viewBox="0 0 20 19" id="youtube">
    <g clip-path="url(#clip0_19_339)">
      <path d="M15.8125 0H3.93748C1.96982 0 0.375 1.59482 0.375 3.56248V15.4375C0.375 17.4052 1.96982 19 3.93748 19H15.8125C17.7802 19 19.375 17.4051 19.375 15.4375V3.56248C19.375 1.59482 17.7802 0 15.8125 0ZM15.7116 11.6268C15.6474 12.4177 15.0466 13.427 14.207 13.5731C11.5173 13.7821 8.33006 13.756 5.54422 13.5731C4.67496 13.4638 4.10379 12.4165 4.03967 11.6268C3.9043 9.96667 3.9043 9.02141 4.03967 7.36129C4.10379 6.57161 4.68923 5.53015 5.54422 5.43517C8.29804 5.20359 11.5031 5.25347 14.207 5.43517C15.1736 5.47078 15.6474 6.46711 15.7116 7.25798C15.8445 8.9181 15.8445 9.96667 15.7116 11.6268Z" fill="white"></path>
      <path d="M8.6875 11.875L12.25 9.5L8.6875 7.125V11.875Z" fill="white"></path>
    </g>
    <defs>
      <clipPath id="clip0_19_339">
        <rect width="19" height="19" fill="white" transform="translate(0.375)"></rect>
      </clipPath>
    </defs>
  </symbol>

  <symbol fill="none" xmlns="http://www.w3.org/2000/svg" viewBox="0 0 19 19" id="instagram">
    <g clip-path="url(#clip0_19_366)">
      <path d="M11.1799 8.27967C10.8033 7.75231 10.1855 7.40576 9.49239 7.40576C8.79929 7.40576 8.18152 7.75231 7.80484 8.27967C7.56376 8.62622 7.41309 9.04811 7.41309 9.50013C7.41309 10.6453 8.34727 11.5794 9.49239 11.5794C10.6375 11.5794 11.5717 10.6453 11.5717 9.50013C11.5717 9.04811 11.421 8.62622 11.1799 8.27967Z" fill="white"></path>
      <path d="M12.4909 8.29468C12.6416 8.59603 12.732 9.07818 12.732 9.50007C12.732 11.278 11.2856 12.7396 9.49253 12.7396C7.69951 12.7396 6.25304 11.2931 6.25304 9.50007C6.25304 9.06312 6.34344 8.59603 6.49412 8.29468H4.67096V13.1313C4.67096 13.7641 5.22845 14.3216 5.86128 14.3216H13.1238C13.7566 14.3216 14.3141 13.7641 14.3141 13.1313V8.29468H12.4909Z" fill="white"></path>
      <path d="M13.7717 4.94964H12.0239V6.9536H14.0128V5.20578V4.93457L13.7717 4.94964Z" fill="white"></path>
      <path d="M14.2236 0.00878906H4.7613C2.13957 0.00878906 0 2.14836 0 4.77009V14.2475C0 16.8541 2.13957 18.9937 4.7613 18.9937H14.2387C16.8604 18.9937 19 16.8541 19 14.2324V4.77009C18.9849 2.14836 16.8454 0.00878906 14.2236 0.00878906ZM15.3688 8.28079V13.1325C15.3688 14.3982 14.3894 15.3775 13.1237 15.3775H5.86122C4.59556 15.3775 3.61618 14.3982 3.61618 13.1325V8.28079V5.87001C3.61618 4.60435 4.59556 3.62497 5.86122 3.62497H13.1237C14.3894 3.62497 15.3688 4.60435 15.3688 5.87001V8.28079Z" fill="white"></path>
    </g>
    <defs>
      <clipPath id="clip0_19_366">
        <rect width="19" height="19" fill="white"></rect>
      </clipPath>
    </defs>
  </symbol>

  <symbol fill="none" xmlns="http://www.w3.org/2000/svg" viewBox="0 0 7 12" id="arrow">
    <path d="M0.46967 5.46967C0.176777 5.76256 0.176777 6.23744 0.46967 6.53033L5.24264 11.3033C5.53553 11.5962 6.01041 11.5962 6.3033 11.3033C6.59619 11.0104 6.59619 10.5355 6.3033 10.2426L2.06066 6L6.3033 1.75736C6.59619 1.46447 6.59619 0.989593 6.3033 0.6967C6.01041 0.403806 5.53553 0.403806 5.24264 0.696699L0.46967 5.46967ZM2 5.25L1 5.25L1 6.75L2 6.75L2 5.25Z" fill="white"></path>
  </symbol>

  <symbol fill="none" xmlns="http://www.w3.org/2000/svg" viewBox="0 0 19 19" id="shopping-bag">
    <g clip-path="url(#clip0_72_1368)">
      <path d="M18.1246 18.5268L16.7049 5.30012C16.6813 5.08717 16.492 4.92154 16.279 4.92154H13.6526V4.11706C13.6526 1.84558 11.807 0 9.53556 0C7.26408 0 5.4185 1.84558 5.4185 4.11706V4.92154H2.72112C2.50817 4.92154 2.31888 5.08717 2.29522 5.30012L0.87554 18.5268C0.851878 18.6451 0.899201 18.7634 0.970185 18.858C1.04117 18.9527 1.15948 19 1.27778 19H17.7224C17.8407 19 17.959 18.9527 18.03 18.858C18.1009 18.7634 18.1483 18.6451 18.1246 18.5268ZM13.2267 7.31133C13.4397 7.31133 13.6053 7.47696 13.6053 7.68991C13.6053 7.90286 13.4397 8.06849 13.2267 8.06849C13.0138 8.06849 12.8481 7.90286 12.8481 7.68991C12.8481 7.47696 13.0138 7.31133 13.2267 7.31133ZM6.27031 4.11706C6.27031 2.3188 7.73731 0.851806 9.53556 0.851806C11.3338 0.851806 12.8008 2.3188 12.8008 4.11706V4.92154H6.27031V4.11706ZM5.84441 7.31133C6.05736 7.31133 6.22299 7.47696 6.22299 7.68991C6.22299 7.90286 6.05736 8.06849 5.84441 8.06849C5.63146 8.06849 5.46583 7.90286 5.46583 7.68991C5.46583 7.47696 5.63146 7.31133 5.84441 7.31133ZM1.77467 18.1245L3.0997 5.74969H5.4185V6.53051C4.94528 6.69614 4.61402 7.1457 4.61402 7.66625C4.61402 8.32877 5.15823 8.87298 5.82075 8.87298C6.48326 8.87298 7.02747 8.32877 7.02747 7.66625C7.02747 7.1457 6.69621 6.69614 6.22299 6.53051V5.74969H12.7535V6.53051C12.2803 6.69614 11.949 7.1457 11.949 7.66625C11.949 8.32877 12.4932 8.87298 13.1557 8.87298C13.8183 8.87298 14.3625 8.32877 14.3625 7.66625C14.3625 7.1457 14.0312 6.69614 13.558 6.53051V5.74969H15.9714L17.2965 18.1245H1.77467Z" fill="white"></path>
    </g>
    <defs>
      <clipPath id="clip0_72_1368">
        <rect width="19" height="19" fill="white"></rect>
      </clipPath>
    </defs>
  </symbol>

  <symbol fill="none" xmlns="http://www.w3.org/2000/svg" viewBox="0 0 18 18" id="plus">
    <rect x="7.36365" width="3.27273" height="18" rx="1.63636" fill="white"></rect>
    <rect y="10.6364" width="3.27273" height="18" rx="1.63636" transform="rotate(-90 0 10.6364)" fill="white"></rect>
  </symbol>
  <symbol fill="none" xmlns="http://www.w3.org/2000/svg" viewBox="0 0 18 4" id="minus">
    <rect y="3.63636" width="3.27273" height="18" rx="1.63636" transform="rotate(-90 0 3.63636)" fill="white"></rect>
  </symbol>

</svg>


